<svg xmlns="http://www.w3.org/2000/svg" viewBox="0 0 512 512" role="img" aria-label="StageMaster">
  <defs>
    <linearGradient id="bg" x1="88" y1="48" x2="424" y2="464" gradientUnits="userSpaceOnUse">
      <stop offset="0" stop-color="#1e3a8a"/>
      <stop offset="0.45" stop-color="#111827"/>
      <stop offset="1" stop-color="#581c87"/>
    </linearGradient>
    <linearGradient id="stage" x1="128" y1="300" x2="384" y2="420" gradientUnits="userSpaceOnUse">
      <stop offset="0" stop-color="#06b6d4"/>
      <stop offset="0.5" stop-color="#3b82f6"/>
      <stop offset="1" stop-color="#a855f7"/>
    </linearGradient>
    <radialGradient id="glow" cx="50%" cy="45%" r="48%">
      <stop offset="0" stop-color="#ffffff" stop-opacity="0.34"/>
      <stop offset="1" stop-color="#ffffff" stop-opacity="0"/>
    </radialGradient>
    <filter id="shadow" x="-20%" y="-20%" width="140%" height="140%">
      <feDropShadow dx="0" dy="14" stdDeviation="18" flood-color="#020617" flood-opacity="0.42"/>
    </filter>
  </defs>

  <rect width="512" height="512" rx="112" fill="url(#bg)"/>
  <rect width="512" height="512" rx="112" fill="url(#glow)"/>

  <path d="M92 118h328v62H92z" fill="#020617" opacity="0.34"/>
  <path d="M132 144h248" stroke="#e0f2fe" stroke-width="16" stroke-linecap="round" opacity="0.9"/>
  <path d="M126 150l64 174M386 150l-64 174" stroke="#38bdf8" stroke-width="30" stroke-linecap="round" opacity="0.22"/>
  <path d="M196 151l28 178M316 151l-28 178" stroke="#f0abfc" stroke-width="24" stroke-linecap="round" opacity="0.2"/>

  <g filter="url(#shadow)">
    <path d="M129 329c0-24 19-43 43-43h168c24 0 43 19 43 43v55H129z" fill="url(#stage)"/>
    <path d="M129 384h254v38c0 16-13 29-29 29H158c-16 0-29-13-29-29z" fill="#020617" opacity="0.74"/>
    <path d="M224 316v86l74-43z" fill="#f8fafc"/>
  </g>

  <path d="M176 421h160" stroke="#e0f2fe" stroke-width="10" stroke-linecap="round" opacity="0.88"/>
  <circle cx="188" cy="421" r="12" fill="#22d3ee"/>
  <circle cx="256" cy="421" r="12" fill="#60a5fa"/>
  <circle cx="324" cy="421" r="12" fill="#c084fc"/>
</svg>
