<?xml version="1.0" encoding="UTF-8"?>
<!DOCTYPE svg PUBLIC "-//W3C//DTD SVG 1.1//EN" "http://www.w3.org/Graphics/SVG/1.1/DTD/svg11.dtd">
<svg xmlns="http://www.w3.org/2000/svg" version="1.1" width="187px" height="70px" style="shape-rendering:geometricPrecision; text-rendering:geometricPrecision; image-rendering:optimizeQuality; fill-rule:evenodd; clip-rule:evenodd" xmlns:xlink="http://www.w3.org/1999/xlink">
<g><path style="opacity:1" fill="#12ac60" d="M 25.5,-0.5 C 31.5,-0.5 37.5,-0.5 43.5,-0.5C 55.7342,3.4002 64.0675,11.4002 68.5,23.5C 68.7678,25.099 68.4345,26.4324 67.5,27.5C 65.3875,26.5604 63.3875,25.3937 61.5,24C 59.8333,23.3333 58.1667,23.3333 56.5,24C 52.8683,26.6298 49.535,29.6298 46.5,33C 41.8554,35.0322 37.8554,34.0322 34.5,30C 22.8381,29.5001 11.1714,29.3335 -0.5,29.5C -0.5,27.8333 -0.5,26.1667 -0.5,24.5C 4.25795,12.0749 12.9246,3.74159 25.5,-0.5 Z"/></g>
<g><path style="opacity:0.999" fill="#1e6cb5" d="M 108.5,18.5 C 111.934,25.1241 114.6,32.1241 116.5,39.5C 116.12,41.698 116.787,43.3646 118.5,44.5C 118.5,44.8333 118.5,45.1667 118.5,45.5C 118.229,47.3797 118.896,48.713 120.5,49.5C 120.804,50.1499 121.137,50.8165 121.5,51.5C 114.452,54.1511 110.785,51.8177 110.5,44.5C 108.527,43.8373 106.361,43.5039 104,43.5C 101.39,43.5332 99.223,44.1999 97.5,45.5C 97.3354,47.8268 96.6687,49.9935 95.5,52C 92.5,52.6667 89.5,52.6667 86.5,52C 89.4053,44.4482 92.4053,36.9482 95.5,29.5C 98.6175,26.2101 100.284,22.2101 100.5,17.5C 103.279,17.2786 105.946,17.612 108.5,18.5 Z M 107.5,36.5 C 105.167,36.5 102.833,36.5 100.5,36.5C 101.651,33.5256 102.817,30.5256 104,27.5C 105.273,30.4893 106.439,33.4893 107.5,36.5 Z"/></g>
<g><path style="opacity:0.969" fill="#136ab4" d="M 152.5,19.5 C 152.5,21.5 152.5,23.5 152.5,25.5C 153.919,26.4511 155.585,26.7845 157.5,26.5C 157.5,28.1667 157.5,29.8333 157.5,31.5C 155.585,31.2155 153.919,31.5489 152.5,32.5C 152.334,36.8461 152.501,41.1794 153,45.5C 154.458,46.7468 155.958,46.7468 157.5,45.5C 158.635,47.7067 159.301,50.0401 159.5,52.5C 155.756,53.8549 152.089,53.6883 148.5,52C 146.624,51.0816 145.624,49.5816 145.5,47.5C 145.5,38.1667 145.5,28.8333 145.5,19.5C 147.833,19.5 150.167,19.5 152.5,19.5 Z"/></g>
<g><path style="opacity:0.991" fill="#4383c1" d="M 108.5,18.5 C 105.946,17.612 103.279,17.2786 100.5,17.5C 100.284,22.2101 98.6175,26.2101 95.5,29.5C 97.0237,24.9516 98.6903,20.4516 100.5,16C 102.833,15.3333 105.167,15.3333 107.5,16C 108.252,16.6708 108.586,17.5041 108.5,18.5 Z"/></g>
<g><path style="opacity:0.302" fill="#5488b8" d="M 178.5,26.5 C 180.948,25.5269 183.615,25.1936 186.5,25.5C 186.5,26.8333 186.5,28.1667 186.5,29.5C 186.167,29.5 185.833,29.5 185.5,29.5C 185.5,28.5 185.5,27.5 185.5,26.5C 183.167,26.5 180.833,26.5 178.5,26.5 Z"/></g>
<g><path style="opacity:0.729" fill="#50be85" d="M 68.5,23.5 C 69.3058,24.9972 69.9724,26.6639 70.5,28.5C 69.1405,29.6653 68.1405,29.332 67.5,27.5C 68.4345,26.4324 68.7678,25.099 68.5,23.5 Z"/></g>
<g><path style="opacity:1" fill="#206eb5" d="M 142.5,31.5 C 142.5,32.5 142.5,33.5 142.5,34.5C 140.167,34.5 137.833,34.5 135.5,34.5C 133.437,31.0271 130.937,30.6938 128,33.5C 127.333,37.1667 127.333,40.8333 128,44.5C 132.161,47.6677 134.661,46.6677 135.5,41.5C 138.167,41.5 140.833,41.5 143.5,41.5C 142.576,51.2385 137.243,55.0718 127.5,53C 124.894,52.2082 122.894,50.7082 121.5,48.5C 121.672,47.5084 121.338,46.8417 120.5,46.5C 120.58,43.2186 119.913,40.2186 118.5,37.5C 120.829,26.3655 127.495,22.5322 138.5,26C 140.464,27.451 141.797,29.2843 142.5,31.5 Z"/></g>
<g><path style="opacity:1" fill="#246fb7" d="M 167.5,26.5 C 168.738,28.2143 169.405,30.2143 169.5,32.5C 169.769,36.4735 170.936,40.1402 173,43.5C 173.464,42.9056 173.631,42.2389 173.5,41.5C 175.472,38.9164 176.472,35.9164 176.5,32.5C 176.595,30.2143 177.262,28.2143 178.5,26.5C 180.833,26.5 183.167,26.5 185.5,26.5C 185.5,27.5 185.5,28.5 185.5,29.5C 182.957,36.9232 180.124,44.2565 177,51.5C 174.205,52.7825 171.372,52.7825 168.5,51.5C 165.1,43.6314 162.1,35.6314 159.5,27.5C 161.948,26.5269 164.615,26.1936 167.5,26.5 Z"/></g>
<g><path style="opacity:0.396" fill="#628bb4" d="M 152.5,25.5 C 157.695,25.1795 162.695,25.5128 167.5,26.5C 164.615,26.1936 161.948,26.5269 159.5,27.5C 158.549,28.9187 158.216,30.5853 158.5,32.5C 156.5,32.5 154.5,32.5 152.5,32.5C 153.919,31.5489 155.585,31.2155 157.5,31.5C 157.5,29.8333 157.5,28.1667 157.5,26.5C 155.585,26.7845 153.919,26.4511 152.5,25.5 Z"/></g>
<g><path style="opacity:0.047" fill="#4f8dc4" d="M 142.5,31.5 C 143.434,32.5676 143.768,33.901 143.5,35.5C 140.615,35.8064 137.948,35.4731 135.5,34.5C 137.833,34.5 140.167,34.5 142.5,34.5C 142.5,33.5 142.5,32.5 142.5,31.5 Z"/></g>
<g><path style="opacity:0.992" fill="#1269b4" d="M 68.5,38.5 C 68.5,40.8333 68.5,43.1667 68.5,45.5C 64.0675,57.5998 55.7342,65.5998 43.5,69.5C 37.8333,69.5 32.1667,69.5 26.5,69.5C 14.1499,66.1647 5.81655,58.498 1.5,46.5C 1.00745,44.1944 0.674116,41.861 0.5,39.5C 12.1714,39.3335 23.8381,39.5001 35.5,40C 37.6182,42.1422 40.1182,43.6422 43,44.5C 48.355,40.4715 53.6883,36.4715 59,32.5C 62.79,33.6378 65.9567,35.6378 68.5,38.5 Z"/></g>
<g><path style="opacity:0.408" fill="#3977ad" d="M 152.5,19.5 C 150.167,19.5 147.833,19.5 145.5,19.5C 145.5,28.8333 145.5,38.1667 145.5,47.5C 144.506,38.0144 144.173,28.3478 144.5,18.5C 147.385,18.1936 150.052,18.5269 152.5,19.5 Z"/></g>
<g><path style="opacity:0.8" fill="#5b92c8" d="M 169.5,32.5 C 170.833,35.5 172.167,38.5 173.5,41.5C 173.631,42.2389 173.464,42.9056 173,43.5C 170.936,40.1402 169.769,36.4735 169.5,32.5 Z"/></g>
<g><path style="opacity:0.812" fill="#548fc7" d="M 176.5,32.5 C 176.472,35.9164 175.472,38.9164 173.5,41.5C 173.928,38.2154 174.928,35.2154 176.5,32.5 Z"/></g>
<g><path style="opacity:0.755" fill="#438ac0" d="M 100.5,36.5 C 102.833,36.5 105.167,36.5 107.5,36.5C 108.043,36.56 108.376,36.8933 108.5,37.5C 105.5,38.8333 102.5,38.8333 99.5,37.5C 99.6236,36.8933 99.9569,36.56 100.5,36.5 Z"/></g>
<g><path style="opacity:0.953" fill="#4d87c2" d="M 118.5,37.5 C 119.913,40.2186 120.58,43.2186 120.5,46.5C 121.338,46.8417 121.672,47.5084 121.5,48.5C 120.833,48.5 120.5,48.8333 120.5,49.5C 118.896,48.713 118.229,47.3797 118.5,45.5C 119.644,44.1507 119.644,43.8174 118.5,44.5C 116.787,43.3646 116.12,41.698 116.5,39.5C 117.268,40.2625 117.768,41.2625 118,42.5C 118.494,40.8659 118.66,39.1992 118.5,37.5 Z"/></g>
<g><path style="opacity:0.494" fill="#518dc5" d="M 68.5,38.5 C 69.4778,38.811 70.1445,39.4777 70.5,40.5C 69.9724,42.3361 69.3058,44.0028 68.5,45.5C 68.5,43.1667 68.5,40.8333 68.5,38.5 Z"/></g>
<g><path style="opacity:0.004" fill="#6598c8" d="M -0.5,39.5 C -0.166667,39.5 0.166667,39.5 0.5,39.5C 0.674116,41.861 1.00745,44.1944 1.5,46.5C 0.833333,45.8333 0.166667,45.1667 -0.5,44.5C -0.5,42.8333 -0.5,41.1667 -0.5,39.5 Z"/></g>
<g><path style="opacity:0.238" fill="#6999c3" d="M 110.5,44.5 C 106.069,44.2307 101.735,44.564 97.5,45.5C 99.223,44.1999 101.39,43.5332 104,43.5C 106.361,43.5039 108.527,43.8373 110.5,44.5 Z"/></g>
</svg>
